<svg width="48" height="48" viewBox="0 0 48 48" fill="none" xmlns="http://www.w3.org/2000/svg">
<path d="M24 16.6729V24.6131M28 20.3274L24.4411 24.6489C24.2125 24.9265 23.7874 24.9265 23.5589 24.6489L19.9999 20.3274" stroke="#2AD4D9" stroke-width="2" stroke-linecap="round"/>
<path d="M9.47274 30.6377H15.1624C15.8687 30.6377 16.5413 30.9397 17.0105 31.4676L18.0078 32.5896C18.477 33.1175 19.1496 33.4195 19.8559 33.4195H28.4533C29.1596 33.4195 29.8322 33.1175 30.3015 32.5896L31.2988 31.4676C31.768 30.9397 32.4406 30.6377 33.1469 30.6377H38.5274C39.8931 30.6377 41.0002 31.7448 41.0002 33.1104V36.2014C41.0002 37.567 39.8931 38.6741 38.5274 38.6741H9.47274C8.10708 38.6741 7 37.567 7 36.2014V33.1104C7 31.7448 8.10708 30.6377 9.47274 30.6377Z" stroke="#4124F1" stroke-width="2" stroke-linecap="round" stroke-linejoin="round"/>
<path d="M38.8375 30V11.4727C38.8375 10.1071 37.7304 9 36.3647 9H11.3282C9.96255 9 8.85547 10.1071 8.85547 11.4727V30.6365" stroke="#4124F1" stroke-width="2" stroke-linecap="round" stroke-linejoin="round"/>
</svg>
